<svg xmlns="http://www.w3.org/2000/svg" version="1.1" xmlns:xlink="http://www.w3.org/1999/xlink" xmlns:svgjs="http://svgjs.dev/svgjs" width="1000" height="1000" viewBox="0 0 1000 1000"><rect width="1000" height="1000" fill="#ffffff"></rect><g transform="matrix(0.7,0,0,0.7,149.57579375983806,380.2506514701345)"><svg viewBox="0 0 396 136" data-background-color="#2f2721" preserveAspectRatio="xMidYMid meet" height="343" width="1000" xmlns="http://www.w3.org/2000/svg" xmlns:xlink="http://www.w3.org/1999/xlink"><g id="tight-bounds" transform="matrix(1,0,0,1,0.2400204698511743,-0.17029820882251556)"><svg viewBox="0 0 395.52 136.34032110760194" height="136.34032110760194" width="395.52"><g><svg viewBox="0 0 395.52 136.34032110760194" height="136.34032110760194" width="395.52"><g transform="matrix(1,0,0,1,0,70.29444088923705)"><svg viewBox="0 0 395.52 66.04588021836489" height="66.04588021836489" width="395.52"><g id="textblocktransform"><svg viewBox="0 0 395.52 66.04588021836489" height="66.04588021836489" width="395.52" id="textblock"><g><svg viewBox="0 0 395.52 66.04588021836489" height="66.04588021836489" width="395.52"><g transform="matrix(1,0,0,1,0,0)"><svg width="395.52" viewBox="-2.349969999999999 -19.720610000000008 289.83112477549884 48.39741783382222" height="66.04588021836489" data-palette-color="#cccaca"><path d="M32.421 19.305v0l-3.66-0.345c0.32-11.215 0.204-20.892-0.349-29.029v0c-1.507 2.266-3.304 5.513-5.391 9.738-2.087 4.226-3.495 6.956-4.223 8.189v0c-0.059-0.011-0.162-0.02-0.31-0.028-0.147-0.014-0.266-0.03-0.357-0.047v0c-0.439-0.083-1.154-0.265-2.146-0.548-0.997-0.29-1.636-0.462-1.918-0.515v0c0.139-0.917-0.087-4.118-0.679-9.603-0.599-5.486-0.918-8.987-0.958-10.5v0c-1.535 5.002-5.5 13.891-11.896 26.665v0l-2.884-0.839c1.088-3.356 3.197-8.559 6.326-15.607 3.13-7.055 5.234-12.574 6.313-16.557v0c0.581 0.049 1.045 0.106 1.392 0.172v0c0.314 0.059 1.457 0.404 3.428 1.034v0c0.433 0.15 0.802 1.698 1.107 4.646 0.311 2.949 0.577 6.178 0.796 9.686 0.221 3.502 0.385 5.575 0.494 6.22v0c1.29-2.016 3.022-5.349 5.196-10 2.168-4.652 3.629-7.595 4.385-8.829v0c0.498 0.128 2.063 0.573 4.694 1.334v0c0.218 3.338 0.365 6.925 0.441 10.759 0.075 3.841 0.118 8.194 0.128 13.06 0.016 4.874 0.039 8.522 0.071 10.944zM39.653-0.634v0l-0.594-2.576c0.954-0.699 2.102-1.201 3.442-1.506 1.346-0.297 2.638-0.352 3.877-0.167v0c5.36 0.804 7.344 5.841 5.954 15.111v0c-0.19 1.266-0.54 3.128-1.051 5.586-0.517 2.457-0.868 4.302-1.053 5.535v0c-0.399 0.951-0.964 1.372-1.696 1.262v0c-0.574-0.086-1.055-0.452-1.443-1.096-0.389-0.645-0.53-1.317-0.426-2.015v0c0.033-0.218 0.07-0.374 0.111-0.469v0c-2.251 1.61-4.487 2.249-6.709 1.915v0c-1.681-0.252-3.06-1.083-4.136-2.491-1.069-1.414-1.472-2.992-1.211-4.732v0c0.443-2.954 1.994-5.448 4.652-7.483 2.659-2.041 5.449-2.843 8.369-2.404v0c0.132 0.02 0.259 0.049 0.382 0.087 0.123 0.032 0.271 0.078 0.444 0.138 0.166 0.059 0.299 0.095 0.398 0.11v0c0.3-3.75-0.898-5.828-3.595-6.232v0c-1.589-0.238-3.494 0.237-5.715 1.427zM47.365 15.762v0c0.399-2.212 0.685-3.888 0.856-5.028v0c0.143-0.956 0.311-2.296 0.502-4.02v0l-0.376-0.057c-2.26-0.305-4.443 0.226-6.549 1.596-2.108 1.376-3.337 3.237-3.689 5.584v0c-0.152 1.015 0.036 1.873 0.564 2.573 0.53 0.693 1.24 1.106 2.13 1.239v0c1.398 0.21 3.585-0.419 6.562-1.887zM72.777 6.272v0l-2.077-0.394c-0.458-1.869-1.481-2.9-3.069-3.093v0c-0.701-0.085-1.462-0.013-2.283 0.216-0.82 0.223-1.504 0.468-2.054 0.737-0.551 0.276-1.278 0.681-2.183 1.215v0c-0.054 0.443-0.24 1.891-0.559 4.344-0.312 2.454-0.627 5.182-0.946 8.186-0.318 2.997-0.457 4.612-0.418 4.845v0c-0.407 0.918-1.024 1.326-1.852 1.225v0c-0.569-0.069-1.091-0.364-1.564-0.885-0.466-0.527-0.725-1.133-0.776-1.817v0c1.854-10.157 3.337-17.821 4.45-22.991v0l2.096 0.739-0.251 3.223c2.455-1.575 4.48-2.265 6.074-2.072v0c1.754 0.213 3.178 0.79 4.273 1.729 1.1 0.947 1.558 2.184 1.371 3.713v0c-0.058 0.476-0.135 0.836-0.232 1.08zM76.411 0.19v0l2.158 0.706c-0.02 2.645-0.224 6.78-0.613 12.403-0.389 5.623-0.62 9.108-0.692 10.454v0c-0.395 0.964-1.007 1.404-1.836 1.318v0c-0.57-0.059-1.097-0.348-1.579-0.867-0.476-0.519-0.745-1.12-0.808-1.803v0c0.203-1.306 0.685-4.701 1.448-10.185 0.764-5.49 1.404-9.499 1.922-12.026zM77.976-8.314v0c0.862 0.089 1.539 0.538 2.032 1.347 0.499 0.809 0.699 1.694 0.599 2.656v0c-0.073 0.703-0.298 1.253-0.673 1.649-0.383 0.396-0.863 0.564-1.44 0.504v0c-0.889-0.092-1.553-0.533-1.994-1.323-0.434-0.789-0.6-1.678-0.498-2.665v0c0.073-0.703 0.284-1.254 0.634-1.654 0.35-0.399 0.796-0.571 1.34-0.514zM82.596 15.33v0c0.104-1.276 0.356-2.687 0.756-4.233 0.4-1.546 0.943-3.161 1.628-4.844 0.685-1.683 1.62-3.055 2.803-4.116 1.177-1.068 2.487-1.543 3.929-1.426v0c3.07 0.25 5.422 1.836 7.057 4.758 1.629 2.915 2.305 6.07 2.029 9.466v0c-0.117 1.435-0.386 2.855-0.808 4.258-0.421 1.397-1.007 2.757-1.757 4.081-0.75 1.324-1.763 2.392-3.04 3.204-1.27 0.813-2.711 1.221-4.323 1.224v0c-2.912-0.625-5.083-2.066-6.511-4.323-1.428-2.263-2.015-4.946-1.763-8.049zM91.797 3.236v0c-1.133 0.035-2.16 0.981-3.08 2.84-0.927 1.858-1.574 3.681-1.941 5.47-0.373 1.789-0.615 3.371-0.727 4.747v0c-0.145 1.787 0.271 3.487 1.251 5.098 0.979 1.611 2.157 2.473 3.532 2.585v0c0.99 0.081 1.918-0.232 2.785-0.937 0.86-0.699 1.568-1.598 2.126-2.696 0.558-1.098 1.003-2.213 1.335-3.343 0.333-1.137 0.536-2.154 0.61-3.051v0c0.213-2.618-0.192-4.952-1.217-7.001-1.024-2.05-2.582-3.287-4.674-3.712zM104.155-5.527l-1.59 7.27-2.13-0.674-0.588-7.807c0.109-0.634 0.334-1.1 0.675-1.398 0.341-0.298 0.721-0.433 1.14-0.405v0c0.639 0.043 1.219 0.356 1.741 0.939 0.529 0.577 0.78 1.268 0.752 2.075zM121.079 4.85v0l-0.574 1.904c-3.047-1.438-5.435-2.199-7.167-2.284v0c-1.538-0.075-2.632 0.105-3.28 0.54-0.649 0.435-1.01 1.406-1.084 2.911v0c-0.06 1.219 0.334 2.249 1.18 3.091 0.839 0.849 1.874 1.537 3.102 2.065 1.229 0.521 2.463 1.079 3.703 1.673 1.239 0.588 2.277 1.417 3.112 2.485 0.828 1.075 1.206 2.365 1.132 3.87v0c-0.101 2.051-0.941 3.808-2.522 5.273-1.587 1.464-3.583 2.154-5.988 2.069v0c-1.765-0.087-3.398-0.537-4.9-1.351-1.502-0.808-2.675-1.797-3.519-2.966v0l1.469-1.37c0.378 0.179 0.935 0.463 1.67 0.853 0.735 0.39 1.26 0.646 1.574 0.768 0.314 0.129 0.781 0.275 1.401 0.439 0.62 0.157 1.282 0.253 1.988 0.288v0c1.505 0.074 2.757-0.202 3.755-0.827 0.992-0.625 1.518-1.548 1.577-2.766v0c0.04-0.806-0.15-1.499-0.568-2.081-0.425-0.582-0.996-1.067-1.711-1.455-0.722-0.389-1.514-0.765-2.378-1.128-0.87-0.37-1.734-0.776-2.593-1.219-0.866-0.443-1.652-0.962-2.357-1.557-0.712-0.596-1.27-1.387-1.675-2.375-0.399-0.981-0.566-2.13-0.502-3.449v0c0.094-1.924 0.693-3.51 1.795-4.757 1.109-1.247 2.609-1.824 4.5-1.732v0c0.739 0.036 1.566 0.19 2.481 0.462 0.921 0.272 1.65 0.518 2.186 0.738 0.537 0.213 1.331 0.563 2.382 1.048 1.051 0.485 1.654 0.765 1.811 0.84zM137.583 25.707v0l0.667-2.701c2.795 1.504 5.542 2.255 8.242 2.253v0c1.927-0.002 3.57-0.396 4.929-1.184 1.366-0.788 2.048-2.065 2.047-3.832v0c-0.001-1.573-0.583-3.01-1.743-4.308-1.154-1.299-2.549-2.445-4.183-3.437-1.641-0.992-3.282-2.011-4.923-3.056-1.634-1.039-3.032-2.321-4.193-3.846-1.155-1.519-1.733-3.212-1.734-5.079v0c-0.002-2.28 0.816-4.357 2.455-6.232 1.632-1.881 3.604-2.823 5.917-2.825v0c1.767-0.001 3.734 0.35 5.901 1.056 2.167 0.705 3.988 1.41 5.462 2.115v0l-0.569 1.92c-3.661-1.244-6.745-1.864-9.251-1.862v0c-1.54 0.001-2.856 0.499-3.949 1.493-1.086 0.994-1.628 2.278-1.627 3.852v0c0.001 1.187 0.305 2.263 0.913 3.229 0.607 0.96 1.401 1.792 2.382 2.498 0.981 0.706 2.074 1.395 3.282 2.067 1.201 0.672 2.394 1.395 3.582 2.167 1.194 0.766 2.281 1.598 3.262 2.498 0.974 0.899 1.768 2.032 2.383 3.398 0.608 1.359 0.912 2.893 0.913 4.599v0c0.002 2.407-0.766 4.371-2.305 5.892-1.539 1.528-3.545 2.293-6.018 2.295v0c-2.113 0.002-4.367-0.293-6.761-0.885-2.394-0.591-4.088-1.287-5.081-2.085zM159.787-6.312v0l2.526 0.504c0.133 1.31 0.269 3.41 0.409 6.301 0.133 2.884 0.246 4.871 0.339 5.963v0c1.678-1.884 3.736-2.863 6.175-2.937v0c2.186-0.065 4.095 0.648 5.726 2.14 1.632 1.498 2.487 3.53 2.564 6.096v0l0.474 15.833c-0.407 0.206-0.931 0.318-1.571 0.337v0c-0.706 0.021-1.351-0.023-1.934-0.132v0c-0.008-0.26-0.013-0.653-0.016-1.18 0.004-0.534 0.002-0.927-0.005-1.181v0c-0.038-1.253-0.152-3.41-0.344-6.472-0.185-3.063-0.308-5.62-0.37-7.673v0c-0.568-2.938-2.105-4.369-4.61-4.293v0c-1.093 0.033-2.16 0.361-3.202 0.986-1.035 0.625-1.784 1.347-2.246 2.168v0c0.16 2.016 0.318 5.059 0.473 9.13 0.149 4.077 0.283 7.015 0.404 8.812v0c-0.763 0.15-1.417 0.233-1.963 0.249v0c-0.806 0.024-1.486-0.052-2.038-0.229v0c0.02-1.575-0.022-4.061-0.123-7.46v0c-0.045-1.513-0.145-4.281-0.299-8.305-0.154-4.024-0.264-7.489-0.331-10.395-0.074-2.906-0.086-5.66-0.038-8.262zM197.101 8.308v0l-2.115-0.014c-0.786-1.756-1.978-2.587-3.575-2.491v0c-0.705 0.042-1.441 0.25-2.206 0.622-0.766 0.366-1.396 0.731-1.888 1.095-0.492 0.37-1.135 0.899-1.929 1.588v0c0.027 0.446 0.104 1.904 0.231 4.374 0.134 2.47 0.315 5.21 0.542 8.222 0.226 3.005 0.38 4.619 0.46 4.841v0c-0.236 0.976-0.769 1.489-1.602 1.539v0c-0.572 0.034-1.138-0.162-1.698-0.59-0.554-0.434-0.917-0.984-1.09-1.648v0c-0.003-10.325 0.078-18.13 0.243-23.416v0l2.195 0.349 0.333 3.216c2.132-1.991 3.999-3.034 5.603-3.13v0c1.764-0.105 3.268 0.205 4.513 0.933 1.253 0.733 1.925 1.868 2.017 3.406v0c0.029 0.479 0.017 0.847-0.034 1.104zM199.67 16.179v0c-0.111-1.275-0.099-2.708 0.036-4.3 0.136-1.591 0.4-3.274 0.794-5.048 0.394-1.774 1.085-3.283 2.075-4.527 0.982-1.25 2.193-1.938 3.634-2.064v0c3.068-0.268 5.653 0.902 7.754 3.509 2.094 2.601 3.289 5.599 3.586 8.992v0c0.125 1.435 0.097 2.879-0.084 4.334-0.181 1.448-0.531 2.887-1.049 4.318-0.518 1.43-1.338 2.653-2.46 3.667-1.116 1.014-2.469 1.658-4.058 1.93v0c-2.976-0.128-5.357-1.186-7.142-3.171-1.787-1.992-2.815-4.539-3.086-7.64zM206.716 2.715v0c-1.111 0.224-1.965 1.329-2.561 3.315-0.603 1.987-0.935 3.893-0.997 5.719-0.068 1.826-0.042 3.427 0.078 4.801v0c0.156 1.787 0.851 3.392 2.086 4.817 1.235 1.425 2.54 2.077 3.915 1.957v0c0.99-0.086 1.853-0.55 2.589-1.39 0.73-0.833 1.278-1.838 1.644-3.015 0.366-1.176 0.618-2.349 0.757-3.519 0.138-1.176 0.168-2.213 0.09-3.109v0c-0.228-2.617-1.019-4.85-2.371-6.7-1.353-1.849-3.096-2.808-5.23-2.876zM221.664 14.133v0c-0.152-1.271-0.185-2.704-0.1-4.298 0.085-1.595 0.296-3.285 0.633-5.071 0.337-1.786 0.981-3.316 1.93-4.591 0.942-1.281 2.131-2.007 3.567-2.178v0c3.058-0.365 5.679 0.722 7.862 3.262 2.175 2.533 3.465 5.492 3.869 8.874v0c0.171 1.43 0.189 2.875 0.053 4.334-0.135 1.453-0.439 2.902-0.911 4.349-0.472 1.446-1.253 2.694-2.343 3.744-1.083 1.049-2.415 1.735-3.994 2.058v0c-2.978-0.034-5.392-1.015-7.24-2.944-1.849-1.935-2.958-4.448-3.326-7.539zM228.28 0.453v0c-1.104 0.259-1.922 1.391-2.456 3.395-0.54 2.005-0.811 3.92-0.815 5.747-0.01 1.827 0.066 3.426 0.23 4.797v0c0.212 1.781 0.959 3.363 2.239 4.748 1.28 1.385 2.605 1.995 3.975 1.832v0c0.986-0.118 1.834-0.608 2.543-1.472 0.704-0.856 1.219-1.878 1.548-3.065 0.328-1.187 0.543-2.368 0.645-3.541 0.101-1.18 0.098-2.217-0.009-3.111v0c-0.311-2.608-1.172-4.815-2.582-6.621-1.411-1.806-3.183-2.709-5.318-2.709zM255.227 0.651v0c0.403 1.759 0.826 3.845 1.27 6.259 0.438 2.421 0.877 4.863 1.314 7.325 0.432 2.47 0.734 4.146 0.906 5.03v0c-0.669 0.293-1.307 0.487-1.913 0.582v0c-0.474 0.074-0.931 0.064-1.371-0.029v0c-0.284-1.217-0.567-2.617-0.847-4.2-0.281-1.582-0.516-2.983-0.706-4.201-0.191-1.225-0.413-2.499-0.667-3.823-0.254-1.323-0.518-2.453-0.792-3.388-0.28-0.928-0.608-1.778-0.984-2.549-0.383-0.77-0.837-1.34-1.36-1.711-0.53-0.369-1.13-0.519-1.801-0.448v0c-0.665 0.104-1.183 0.33-1.554 0.678-0.371 0.348-0.734 0.941-1.089 1.779v0l2.939 18.842c-0.435 0.324-0.985 0.538-1.651 0.642v0c-0.507 0.079-1.093 0.089-1.756 0.031v0c-0.212-2.011-0.76-5.954-1.642-11.828-0.889-5.873-1.441-10.237-1.658-13.091v0l2.218 0.14 0.516 2.399c0.723-1.638 1.812-2.57 3.268-2.797v0c2.161-0.337 4.134 0.33 5.92 2.002v0c0.625-2.047 1.969-3.232 4.03-3.554v0c0.823-0.128 1.55-0.144 2.179-0.046v0c3.611 0.442 6.03 4.596 7.257 12.46v0c0.179 1.146 0.378 2.684 0.598 4.613 0.22 1.929 0.382 3.23 0.487 3.902v0c0.138 0.883 0.301 1.603 0.489 2.16v0c-1.585 0.699-2.551 1.076-2.901 1.131v0c-0.316 0.049-0.541 0.054-0.676 0.014v0c-0.196-0.394-0.381-1.145-0.553-2.252v0c-0.109-0.698-0.283-2.142-0.524-4.331-0.247-2.188-0.467-3.901-0.66-5.139v0c-1.028-6.594-2.845-9.721-5.451-9.382v0c-0.601 0.127-1.096 0.39-1.486 0.788-0.396 0.406-0.845 1.07-1.349 1.992zM283.374-8.597v0l-0.107 1.986c-3.3-0.676-5.801-0.851-7.504-0.525v0c-1.512 0.29-2.532 0.724-3.059 1.301-0.527 0.576-0.649 1.605-0.365 3.084v0c0.23 1.198 0.856 2.106 1.877 2.725 1.016 0.626 2.184 1.05 3.503 1.272 1.318 0.215 2.649 0.466 3.993 0.75 1.343 0.278 2.547 0.838 3.612 1.679 1.059 0.849 1.731 2.013 2.014 3.493v0c0.387 2.016-0.014 3.923-1.203 5.72-1.196 1.798-2.972 2.94-5.329 3.426v0c-1.735 0.333-3.428 0.282-5.08-0.155-1.651-0.43-3.024-1.113-4.121-2.049v0l1.104-1.679c0.41 0.084 1.018 0.229 1.824 0.434 0.806 0.205 1.377 0.33 1.711 0.374 0.336 0.051 0.824 0.083 1.465 0.096 0.639 0.006 1.306-0.057 2-0.191v0c1.48-0.284 2.631-0.848 3.453-1.691 0.816-0.842 1.109-1.862 0.878-3.061v0c-0.152-0.792-0.5-1.421-1.044-1.887-0.551-0.464-1.22-0.801-2.007-1.01-0.793-0.207-1.652-0.385-2.577-0.533-0.932-0.154-1.868-0.344-2.808-0.571-0.946-0.226-1.832-0.544-2.658-0.956-0.832-0.41-1.562-1.048-2.189-1.911-0.62-0.859-1.054-1.936-1.303-3.232v0c-0.363-1.892-0.157-3.575 0.619-5.048 0.783-1.474 2.104-2.39 3.963-2.746v0c0.727-0.14 1.566-0.185 2.519-0.138 0.959 0.047 1.726 0.113 2.299 0.2 0.572 0.08 1.426 0.232 2.562 0.455 1.136 0.223 1.789 0.352 1.958 0.388z" opacity="1" transform="matrix(1,0,0,1,0,0)" fill="#000000" class="wordmark-text-0" data-fill-palette-color="primary" id="text-0"></path></svg></g></svg></g></svg></g></svg></g><g transform="matrix(1,0,0,1,165.33995434385392,0)"><svg viewBox="0 0 64.84009131229216 66.04588021836489" height="66.04588021836489" width="64.84009131229216"><g><svg xmlns="http://www.w3.org/2000/svg" xmlns:xlink="http://www.w3.org/1999/xlink" version="1.1" x="0" y="0" viewBox="1.416 0 98.03 99.85300000000001" enable-background="new 0 0 100 100" xml:space="preserve" height="66.04588021836489" width="64.84009131229216" class="icon-icon-0" data-fill-palette-color="accent" id="icon-0"><path d="M85.356 12.044C75.266 2.415 60.536 0 50.45 0h-0.039C40.325 0 25.596 2.415 15.504 12.044 5.418 21.675 1.416 31.275 1.416 43.678c0 12.406 7.758 20.719 14.812 22.893 7.45 2.3 16.42-0.481 16.42-9.418 0-4.523-2.416-7.445-5.846-7.445-1.667 0-3.886 0.884-5.298 2.696-1.807-2.195-3.714-3.611-4.956-4.402 0.342-0.941 0.791-1.853 1.349-2.731 1.058 1.225 2.673 3.305 3.881 5.788 0.366-0.526 0.621-0.781 1.092-1.234-1.262-2.814-2.833-5.002-3.77-6.178 0.63-0.742 1.354-1.446 2.168-2.099 0.815 1.618 1.979 4.287 2.741 7.642 0 0 1.009-0.754 1.538-1.084-0.825-3.416-2.03-6.057-2.838-7.595 0.718-0.466 1.494-0.897 2.331-1.288 0.57 1.531 1.453 4.41 1.832 8.313 0.558-0.284 1.128-0.402 1.701-0.638-0.435-3.845-1.337-6.761-1.924-8.35 0.781-0.291 1.606-0.551 2.474-0.776 0.359 1.577 0.888 4.534 0.941 8.398 0.592-0.194 1.176-0.364 1.739-0.512-0.09-3.772-0.602-6.651-0.973-8.272 0.732-0.141 1.489-0.259 2.278-0.352 0.216 2.324 0.405 5.4 0.301 8.534 0.655-0.141 1.249-0.252 1.763-0.339 0.078-3.09-0.102-6.077-0.315-8.357 0.628-0.043 1.276-0.07 1.936-0.083 0 0 1.358 9.339-2.253 26.414-2.528 11.936-2.423 20.867-1.48 26.121 0.941 5.254 4.34 10.529 9.182 10.529 3.527 0 2.925-0.853 8.17-0.853h0.039c5.244 0 4.638 0.853 8.17 0.853 4.842 0 8.238-5.483 9.179-10.737 0.946-5.254 1.048-14.079-1.479-26.019-3.614-17.073-2.251-26.361-2.251-26.361 0.641 0.012 1.271 0.071 1.883 0.11-0.219 2.295-0.408 5.333-0.325 8.468 0.514 0.087 1.11 0.202 1.761 0.345-0.102-3.178 0.092-6.291 0.311-8.624 0.796 0.092 1.558 0.209 2.29 0.35-0.369 1.601-0.902 4.527-0.99 8.372 0.559 0.148 1.146 0.318 1.737 0.512 0.054-3.947 0.606-6.947 0.966-8.498 0.873 0.226 1.702 0.485 2.488 0.779-0.587 1.562-1.519 4.517-1.965 8.447 0.577 0.235 1.146 0.354 1.703 0.638 0.388-3.993 1.3-6.914 1.868-8.415 0.839 0.393 1.625 0.825 2.343 1.293-0.806 1.523-2.042 4.204-2.892 7.69 0.534 0.332 1.543 1.086 1.543 1.086 0.776-3.425 1.975-6.135 2.795-7.741 0.819 0.658 1.547 1.363 2.183 2.111-0.927 1.157-2.547 3.384-3.837 6.268 0.47 0.451 0.723 0.706 1.091 1.235 1.232-2.54 2.896-4.658 3.949-5.868 0.563 0.888 1.02 1.814 1.358 2.766-1.223 0.771-3.134 2.181-4.963 4.376-1.412-1.822-3.639-2.695-5.308-2.695-3.43 0-5.846 2.955-5.846 7.477 0 8.941 8.97 11.789 16.417 9.489 7.06-2.178 14.816-10.611 14.816-23.015C99.445 31.285 95.443 21.675 85.356 12.044zM20.128 56.57c0 0.247 0.01 0.51 0.034 0.771-1.647 0-2.778 0.116-3.522 0.232-0.342-0.737-0.616-1.61-0.776-2.639C16.892 55.158 18.483 55.634 20.128 56.57zM17.664 59.205c0.674-0.068 1.596-0.117 2.816-0.112 0.199 0.743 0.485 1.523 0.876 2.354C21.355 61.446 19.298 61.17 17.664 59.205zM20.574 54.067c-0.078 0.206-0.148 0.419-0.208 0.643-1.902-0.98-3.666-1.414-4.655-1.597-0.002-0.111-0.002-0.226-0.002-0.339 0-1.005 0.107-2.011 0.325-3.003C17.251 50.601 18.988 51.998 20.574 54.067zM80.733 56.634c1.645-0.932 3.236-1.393 4.25-1.611-0.17 1.038-0.451 1.922-0.811 2.654-0.737-0.121-1.853-0.229-3.483-0.238C80.719 57.162 80.729 56.896 80.733 56.634zM84.838 49.822c0.209 0.975 0.315 1.967 0.315 2.959 0 0.141 0 0.281-0.005 0.42-0.966 0.175-2.727 0.597-4.643 1.569-0.059-0.24-0.132-0.471-0.214-0.691C81.893 52.018 83.63 50.635 84.838 49.822zM79.506 61.456c0.374-0.801 0.65-1.553 0.849-2.261 1.189-0.01 2.097 0.043 2.761 0.111C81.5 61.185 79.506 61.456 79.506 61.456z" fill="#000000" data-fill-palette-color="accent"></path></svg></g></svg></g><g></g></svg></g><defs></defs></svg><rect width="395.52" height="136.34032110760194" fill="none" stroke="none" visibility="hidden"></rect></g></svg></g></svg>